<svg width="220" height="40" viewBox="0 0 220 40" fill="none" xmlns="http://www.w3.org/2000/svg">
<path fill-rule="evenodd" clip-rule="evenodd" d="M2.57227 1.73779H15.7136L14.2602 21.0954H2.57227V1.73779Z" fill="#009DE2"/>
<path fill-rule="evenodd" clip-rule="evenodd" d="M15.9969 0V22.8331H0.833008L15.9969 0Z" fill="#008AD1"/>
<path fill-rule="evenodd" clip-rule="evenodd" d="M1.73828 37.4279H21.0962V25.7399L1.73828 24.6056V37.4279Z" fill="#3B3A39"/>
<path fill-rule="evenodd" clip-rule="evenodd" d="M0 24.0021H22.8335V39.1657L0 24.0021Z" fill="#1A1A18"/>
<path fill-rule="evenodd" clip-rule="evenodd" d="M25.7399 18.9041H37.4275V38.2617H24.7588L25.7399 18.9041Z" fill="#FFEC00"/>
<path fill-rule="evenodd" clip-rule="evenodd" d="M24.002 39.9995L39.1655 17.1664H24.002V39.9995Z" fill="#FFCB00"/>
<path fill-rule="evenodd" clip-rule="evenodd" d="M18.9053 14.2596L38.2628 15.0871V2.57166H18.9053V14.2596Z" fill="#E4007D"/>
<path fill-rule="evenodd" clip-rule="evenodd" d="M17.166 15.9974V0.833862L39.9995 15.9974H17.166Z" fill="#CC006F"/>
<path d="M219.999 33.116V29.6059H217.001C216.726 29.6059 216.521 29.6591 216.388 29.7634C216.267 29.8713 216.206 30.0457 216.206 30.287V31.1094C216.206 31.3454 216.267 31.5174 216.388 31.6262C216.517 31.7353 216.721 31.7897 217.001 31.7897H217.456L215.837 33.1156H217.008L218.422 31.7885H219.197V33.1156L219.999 33.116ZM217.361 30.2121H219.197V31.1916H217.361C217.221 31.1916 217.123 31.171 217.069 31.1304C217.019 31.0877 216.994 31.0148 216.994 30.9129V30.4912C216.994 30.3869 217.019 30.3144 217.069 30.2737C217.123 30.2326 217.221 30.2121 217.361 30.2121ZM214.906 33.116V29.6067H214.349L211.88 31.6753C211.778 31.7546 211.703 31.8183 211.657 31.8646C211.611 31.9101 211.551 31.9733 211.478 32.0551C211.485 31.9713 211.491 31.8956 211.495 31.8296C211.498 31.7627 211.503 31.7007 211.507 31.6403C211.512 31.5859 211.514 31.5223 211.514 31.4498V29.6067H210.778V33.116H211.336L213.913 30.9455C213.979 30.8899 214.034 30.84 214.076 30.7969C214.125 30.7506 214.168 30.705 214.205 30.6607C214.203 30.7006 214.198 30.7538 214.192 30.8194C214.185 30.8867 214.181 30.935 214.177 30.968C214.173 31.0349 214.17 31.1191 214.17 31.2186V33.116H214.906ZM205.494 33.116V29.6067H206.31V30.9668H208.861V29.6067H209.683V33.116H208.861V31.606H206.31V33.116H205.494ZM199.993 33.116L201.972 29.6067H202.759L204.773 33.116H203.855L203.434 32.3475H201.21L200.8 33.116H199.993ZM201.564 31.7152H203.1L202.337 30.2874L201.564 31.7152ZM196.089 33.116V30.2664H198.413V33.116H199.23V29.6067H198.36H195.272V30.4364V33.116H196.089ZM189.498 33.116V29.6067H190.158L191.809 31.7277L193.429 29.6067H194.082V33.116H193.327V30.9455C193.327 30.8831 193.329 30.8311 193.334 30.7904C193.34 30.7361 193.346 30.6636 193.353 30.5725C193.33 30.6156 193.309 30.6575 193.29 30.6974C193.271 30.7381 193.253 30.7711 193.238 30.7973C193.201 30.8641 193.172 30.9117 193.149 30.9399L191.83 32.6943H191.667L190.349 30.933C190.307 30.8786 190.266 30.815 190.227 30.7413C190.184 30.6752 190.154 30.6189 190.138 30.5725C190.145 30.6462 190.152 30.7143 190.159 30.7763V30.9451V33.1156L189.498 33.116ZM184.888 32.4563H187.581V30.2326H184.888V32.4563ZM184.072 30.4364C184.072 30.119 184.13 29.9015 184.248 29.7847C184.374 29.6655 184.605 29.6067 184.943 29.6067H187.526C187.866 29.6067 188.094 29.6655 188.212 29.7847C188.336 29.9003 188.397 30.1178 188.397 30.4364V32.2863C188.397 32.6057 188.336 32.8236 188.212 32.9404C188.094 33.0572 187.864 33.1164 187.526 33.1164H184.943C184.606 33.1164 184.375 33.0576 184.248 32.9404C184.131 32.8228 184.072 32.6049 184.072 32.2863V30.4364ZM178.958 33.116V29.6067H179.781V31.0687L181.724 29.6067H182.908L180.583 31.2605L183.194 33.1156H181.88L179.78 31.5718V33.1156L178.958 33.116ZM172.307 33.116V29.6059H169.309C169.034 29.6059 168.829 29.6591 168.696 29.7634C168.575 29.8713 168.514 30.0457 168.514 30.287V31.1094C168.514 31.3454 168.575 31.5174 168.696 31.6262C168.825 31.7353 169.029 31.7897 169.309 31.7897H169.764L168.145 33.1156H169.316L170.73 31.7885H171.506V33.1156L172.307 33.116ZM169.67 30.2121H171.506V31.1916H169.67C169.529 31.1916 169.431 31.171 169.377 31.1304C169.327 31.0877 169.302 31.0148 169.302 30.9129V30.4912C169.302 30.3869 169.327 30.3144 169.377 30.2737C169.431 30.2326 169.529 30.2121 169.67 30.2121ZM162.738 33.116L164.717 29.6067H165.505L167.519 33.116H166.601L166.18 32.3475H163.956L163.547 33.116H162.738ZM164.309 31.7152H165.846L165.083 30.2874L164.309 31.7152ZM157.835 33.116V29.6067H158.651V30.9668H161.201V29.6067H162.024V33.116H161.201V31.606H158.651V33.116H157.835ZM152.674 33.116V29.6067H153.49V30.9668H156.04V29.6067H156.863V33.116H156.04V31.606H153.49V33.116H152.674ZM148.172 33.116V29.6067H151.762V30.2052H148.988V30.987H150.607V31.5855H148.988V32.4559H151.798V33.1156L148.172 33.116ZM143.5 33.116V29.6067H146.505C146.78 29.6067 146.983 29.6611 147.112 29.771C147.234 29.8802 147.294 30.0522 147.294 30.2878V30.7151C147.294 30.8794 147.242 31.0132 147.138 31.1175C147.03 31.225 146.88 31.2874 146.689 31.3068C146.892 31.3338 147.049 31.4075 147.158 31.5255C147.268 31.6399 147.323 31.7905 147.323 31.9798V32.4285C147.323 32.6552 147.236 32.8276 147.063 32.9464C146.896 33.0588 146.638 33.1152 146.287 33.1152H143.5V33.116ZM146.164 31.5927H144.302V32.4836H146.164C146.322 32.4836 146.426 32.4611 146.478 32.4156C146.533 32.3681 146.56 32.2863 146.56 32.1719V31.9065C146.56 31.7897 146.533 31.7083 146.478 31.6608C146.425 31.6153 146.321 31.5927 146.164 31.5927ZM146.164 30.1782H144.302V31.0148H146.164C146.303 31.0148 146.4 30.997 146.457 30.9616C146.513 30.9197 146.54 30.8537 146.54 30.763V30.43C146.54 30.3393 146.513 30.2737 146.457 30.2314C146.4 30.1964 146.303 30.1782 146.164 30.1782ZM141.358 30.2326V33.116H140.542V30.2326H138.93V29.6067H142.976V30.2326H141.358ZM137.495 30.2326H135.291V32.4563H137.495V31.7015L138.311 31.8702V32.2851C138.311 32.6037 138.252 32.8212 138.133 32.94C138.007 33.0568 137.776 33.116 137.439 33.116H135.347C135.01 33.116 134.779 33.0572 134.653 32.94C134.534 32.8212 134.476 32.6037 134.476 32.2859V30.436C134.476 30.1198 134.534 29.9023 134.653 29.7843C134.778 29.6651 135.009 29.6063 135.347 29.6063H137.439C137.777 29.6063 138.008 29.6651 138.133 29.7843C138.252 29.9019 138.311 30.1198 138.311 30.436V30.7695L137.495 30.9V30.2326ZM129.465 32.4563H132.158V30.2326H129.465V32.4563ZM128.65 30.4364C128.65 30.119 128.708 29.9015 128.826 29.7847C128.95 29.6655 129.181 29.6067 129.519 29.6067H132.102H132.974V32.4563H133.681V33.6734H132.974V33.116H128.65V33.6734H127.901V32.4563H128.65L128.65 30.4364ZM123.399 32.4563H126.092V30.2326H123.399V32.4563ZM122.583 30.4364C122.583 30.119 122.642 29.9015 122.758 29.7847C122.884 29.6655 123.116 29.6067 123.453 29.6067H126.036C126.376 29.6067 126.606 29.6655 126.723 29.7847C126.847 29.9003 126.908 30.1178 126.908 30.4364V32.2863C126.908 32.6057 126.846 32.8236 126.723 32.9404C126.604 33.0572 126.375 33.1164 126.036 33.1164H123.453C123.116 33.1164 122.885 33.0576 122.758 32.9404C122.642 32.8228 122.583 32.6049 122.583 32.2863V30.4364ZM117.822 33.116V29.6067H120.828C121.102 29.6067 121.305 29.6611 121.434 29.771C121.556 29.8802 121.617 30.0522 121.617 30.2878V30.7151C121.617 30.8794 121.565 31.0132 121.46 31.1175C121.353 31.225 121.203 31.2874 121.012 31.3068C121.215 31.3338 121.371 31.4075 121.481 31.5255C121.591 31.6399 121.645 31.7905 121.645 31.9798V32.4285C121.645 32.6552 121.559 32.8276 121.385 32.9464C121.219 33.0588 120.96 33.1152 120.61 33.1152H117.822V33.116ZM120.487 31.5927H118.625V32.4836H120.487C120.645 32.4836 120.749 32.4611 120.801 32.4156C120.855 32.3681 120.883 32.2863 120.883 32.1719V31.9065C120.883 31.7897 120.856 31.7083 120.801 31.6608C120.748 31.6153 120.643 31.5927 120.487 31.5927ZM120.487 30.1782H118.625V31.0148H120.487C120.625 31.0148 120.723 30.997 120.78 30.9616C120.835 30.9197 120.862 30.8537 120.862 30.763V30.43C120.862 30.3393 120.835 30.2737 120.78 30.2314C120.723 30.1964 120.625 30.1782 120.487 30.1782ZM113.965 30.2326H116.168V30.9805H114.965V31.6672H116.168V32.4559H113.965V31.7003L113.149 31.8702V32.2851C113.149 32.6037 113.208 32.8212 113.327 32.94C113.453 33.0568 113.684 33.116 114.02 33.116H116.255C116.348 33.116 116.451 33.0967 116.565 33.058C116.678 33.0181 116.777 32.95 116.859 32.8506C116.942 32.7519 116.984 32.6206 116.984 32.4563V31.8102C116.984 31.6604 116.951 31.5553 116.886 31.4928C116.82 31.4292 116.721 31.3636 116.59 31.2923C116.699 31.2468 116.791 31.1843 116.869 31.1066C116.946 31.0285 116.984 30.9366 116.984 30.8311V30.4368C116.984 30.1206 116.926 29.9031 116.807 29.7839C116.682 29.6659 116.451 29.6071 116.113 29.6071H114.02C113.683 29.6071 113.451 29.6659 113.327 29.7839C113.208 29.9027 113.149 30.1206 113.149 30.4368V30.7703L113.965 30.8996V30.2326ZM112.076 33.116V29.6067H111.518L109.049 31.6753C108.948 31.7546 108.873 31.8183 108.826 31.8646C108.781 31.9101 108.721 31.9733 108.648 32.0551C108.655 31.9713 108.661 31.8956 108.664 31.8296C108.668 31.7627 108.672 31.7007 108.677 31.6403C108.681 31.5859 108.684 31.5223 108.684 31.4498V29.6067H107.948V33.116H108.506L111.083 30.9455C111.149 30.8899 111.203 30.84 111.246 30.7969C111.295 30.7506 111.338 30.705 111.375 30.6607C111.373 30.7006 111.368 30.7538 111.361 30.8194C111.354 30.8867 111.35 30.935 111.346 30.968C111.342 31.0349 111.34 31.1191 111.34 31.2186V33.116H112.076ZM103.201 32.4563H105.895V30.2326H103.201V32.4563ZM102.385 30.4364C102.385 30.119 102.444 29.9015 102.561 29.7847C102.687 29.6655 102.918 29.6067 103.256 29.6067H105.839C106.179 29.6067 106.408 29.6655 106.526 29.7847C106.649 29.9003 106.71 30.1178 106.71 30.4364V32.2863C106.71 32.6057 106.649 32.8236 106.526 32.9404C106.407 33.0572 106.178 33.1164 105.839 33.1164H103.256C102.919 33.1164 102.688 33.0576 102.561 32.9404C102.444 32.8228 102.385 32.6049 102.385 32.2863V30.4364ZM97.6794 33.116V29.6067H100.677C100.953 29.6067 101.158 29.6591 101.29 29.7646C101.413 29.8721 101.474 30.0457 101.474 30.287V31.0687C101.474 31.3044 101.413 31.4755 101.289 31.5847C101.16 31.6946 100.956 31.749 100.677 31.749H98.4813V33.116H97.6794ZM100.318 30.2121H98.4813V31.1437H100.318C100.46 31.1437 100.558 31.1231 100.61 31.0824C100.66 31.0418 100.685 30.9693 100.685 30.8649V30.4908C100.685 30.3865 100.66 30.314 100.61 30.2733C100.558 30.2326 100.461 30.2121 100.318 30.2121ZM93.5648 33.116V30.2664H95.8883V33.116H96.7055V29.6067H95.8352H92.7476V30.4364V33.116H93.5648ZM90.1961 31.654V30.9535H91.7809V31.654H90.1961ZM85.7842 32.4563H88.4771V30.2326H85.7842V32.4563ZM84.9682 30.4364C84.9682 30.119 85.027 29.9015 85.1438 29.7847C85.2698 29.6655 85.501 29.6067 85.8386 29.6067H88.4219C88.7618 29.6067 88.991 29.6655 89.1086 29.7847C89.2322 29.9003 89.2931 30.1178 89.2931 30.4364V32.2863C89.2931 32.6057 89.2318 32.8236 89.1086 32.9404C88.9898 33.0572 88.7606 33.1164 88.4219 33.1164H85.8386C85.5022 33.1164 85.2706 33.0576 85.1438 32.9404C85.027 32.8228 84.9682 32.6049 84.9682 32.2863V30.4364ZM79.8132 33.116V29.6067H80.6292V30.9668H83.1795V29.6067H84.0023V33.116H83.1795V31.606H80.6292V33.116H79.8132ZM74.1346 33.116V29.6067H74.7943L76.4461 31.7277L78.0656 29.6067H78.7185V33.116H77.9637V30.9455C77.9637 30.8831 77.9657 30.8311 77.9705 30.7904C77.9762 30.7361 77.983 30.6636 77.9899 30.5725C77.9673 30.6156 77.946 30.6575 77.9266 30.6974C77.9073 30.7381 77.8904 30.7711 77.8743 30.7973C77.838 30.8641 77.8086 30.9117 77.7861 30.9399L76.4666 32.6943H76.3035L74.9853 30.933C74.9434 30.8786 74.9023 30.815 74.8628 30.7413C74.8197 30.6752 74.7903 30.6189 74.7742 30.5725C74.7811 30.6462 74.7879 30.7143 74.7943 30.7763V30.9451V33.1156L74.1346 33.116ZM68.6466 33.116L70.6257 29.6067H71.4135L73.4274 33.116H72.5095L72.0878 32.3475H69.8641L69.4549 33.116H68.6466ZM70.2177 31.7152H71.7543L70.9914 30.2874L70.2177 31.7152ZM66.3979 29.6067L68.4234 33.116H67.4918L66.0705 30.5794L64.7184 33.116H63.9012L65.8336 29.6067H66.3979ZM59.1542 33.116V29.6067H59.977V31.0687L61.9208 29.6067H63.1053L60.7794 31.2605L63.3909 33.1156H62.0771L59.977 31.5718V33.1156L59.1542 33.116ZM54.6187 33.116V29.6067H58.2093V30.2052H55.4347V30.987H57.0542V31.5855H55.4347V32.4559H58.2444V33.1156L54.6187 33.116ZM50.001 33.116V29.6067H52.9988C53.2742 29.6067 53.4792 29.6591 53.6118 29.7646C53.7342 29.8721 53.7954 30.0457 53.7954 30.287V31.0687C53.7954 31.3044 53.7342 31.4755 53.611 31.5847C53.4817 31.6946 53.2779 31.749 52.9988 31.749H50.8033V33.116H50.001ZM52.6395 30.2121H50.8033V31.1437H52.6395C52.7821 31.1437 52.8795 31.1231 52.9319 31.0824C52.9818 31.0418 53.0068 30.9693 53.0068 30.8649V30.4908C53.0068 30.3865 52.9818 30.314 52.9319 30.2733C52.8795 30.2326 52.7821 30.2121 52.6395 30.2121Z" fill="#121D36"/>
<path d="M208.714 17.0751L211.814 9.81405L214.86 17.0751H208.714ZM217.77 24.0916H220L211.869 5.08197L203.52 24.0916H205.749L207.925 18.979H215.649L217.77 24.0916ZM196.829 24.0916H198.842V7.85581H205.097V5.95194H196.829V24.0916ZM183.857 7.55655C187.855 7.55655 191.064 10.7658 191.064 15.0355C191.064 19.3052 187.855 22.514 183.857 22.514C179.859 22.514 176.677 19.3052 176.677 15.0355C176.677 10.7658 179.859 7.55655 183.857 7.55655ZM171.918 13.5126V5.95194H169.906V24.0916H171.918V15.4161H174.611C174.801 20.2295 178.446 24.4179 183.857 24.4179C189.187 24.4179 193.131 20.42 193.131 15.0355C193.131 9.54178 189.187 5.65309 183.857 5.65309C178.989 5.65309 175.345 9.05242 174.692 13.5126H171.918ZM156.879 24.0916H158.891V5.19071L146.273 19.8493V5.95194H144.26V24.9072L156.879 10.2486V24.0916ZM130.826 5.95194H128.813V24.0916H130.826V16.2865L131.342 15.7697L138.767 24.0916H141.541L132.784 14.41L141.269 5.95194H138.549L130.826 13.7301L130.826 5.95194ZM125.114 7.44781C122.939 5.78882 120.845 5.65268 119.757 5.65268C114.318 5.65268 110.266 9.67751 110.266 15.0895C110.266 20.3383 114.263 24.4175 119.648 24.4175C121.008 24.4175 123.102 24.0912 125.114 22.6497V20.1478C124.788 20.4744 124.054 21.1543 123.02 21.6706C122.069 22.1604 120.872 22.5136 119.648 22.5136C116.33 22.5136 112.332 20.0386 112.332 15.1164C112.332 10.9281 115.433 7.55615 119.621 7.55615C120.681 7.55615 121.796 7.82802 122.748 8.26341C123.673 8.69839 124.543 9.37866 125.114 9.94938V7.44781ZM107.546 5.95194H98.1368V24.0916H107.546V22.1878H100.149V15.1442H107.329V13.2404H100.149V7.85541H107.546V5.95194ZM85.7353 15.7154H87.8019C89.2433 15.7154 90.1951 15.8785 90.875 16.2591C91.5818 16.6401 92.4252 17.4831 92.4252 18.9242C92.4252 20.012 91.9358 20.9094 91.2286 21.4262C90.3582 22.106 89.216 22.1878 88.0467 22.1878H85.7353V15.7154ZM85.7353 7.85581H87.3125C87.8836 7.85581 90.8206 7.91018 90.8206 10.9019C90.8206 13.7031 88.3186 13.9206 87.2581 13.9206H85.7353V7.85581ZM83.7227 5.95194V24.0916H88.2368C89.4878 24.0916 91.1468 24.0373 92.5883 22.895C93.5674 22.1334 94.4374 20.7197 94.4374 18.979C94.4374 17.2386 93.5131 15.0355 90.9837 14.41C92.5883 13.3221 92.7788 11.7449 92.7788 10.8475C92.7788 8.64442 91.7183 7.52957 91.1472 7.09458C89.8145 6.0337 87.9924 5.95234 86.9863 5.95234L83.7227 5.95194ZM77.0323 5.95194V24.0916H79.045V5.95194H77.0323ZM66.4263 15.3891H68.5477C69.663 15.3891 70.7504 15.3891 71.5938 15.8511C72.8448 16.5309 73.0623 17.7276 73.0623 18.5979C73.0623 19.9033 72.6003 20.7193 72.1106 21.1817C71.0775 22.1882 69.5816 22.1882 68.7656 22.1882H66.4267L66.4263 15.3891ZM64.4137 24.0916H69.2546C72.817 24.0916 75.1285 22.052 75.1285 18.5979C75.1285 13.9476 71.1036 13.4852 68.8735 13.4852H66.4259V5.95194H64.4133L64.4137 24.0916ZM52.0126 15.7154H54.0792C55.5207 15.7154 56.4724 15.8785 57.1523 16.2591C57.8591 16.6401 58.7025 17.4831 58.7025 18.9242C58.7025 20.012 58.2128 20.9094 57.5059 21.4262C56.6355 22.106 55.4933 22.1878 54.3241 22.1878H52.0126V15.7154ZM52.0126 7.85581H53.5898C54.161 7.85581 57.0979 7.91018 57.0979 10.9019C57.0979 13.7031 54.5959 13.9206 53.5351 13.9206H52.0122L52.0126 7.85581ZM50 5.95194V24.0916H54.5142C55.7652 24.0916 57.4242 24.0373 58.8657 22.895C59.8448 22.1334 60.7151 20.7197 60.7151 18.979C60.7151 17.2386 59.7904 15.0355 57.2614 14.41C58.8657 13.3221 59.0562 11.7449 59.0562 10.8475C59.0562 8.64442 57.9957 7.52957 57.4246 7.09458C56.0918 6.0337 54.2697 5.95234 53.2636 5.95234L50 5.95194Z" fill="#121D36"/>
</svg>
