<svg width="304" height="56" viewBox="0 0 304 56" fill="none" xmlns="http://www.w3.org/2000/svg">
<path fill-rule="evenodd" clip-rule="evenodd" d="M3.6001 2.43286H21.9981L19.9633 29.5335H3.6001V2.43286Z" fill="#009DE2"/>
<path fill-rule="evenodd" clip-rule="evenodd" d="M22.397 0V31.9665H1.16748L22.397 0Z" fill="#008AD1"/>
<path fill-rule="evenodd" clip-rule="evenodd" d="M2.43311 52.3992H29.5342V36.036L2.43311 34.4479V52.3992Z" fill="#3B3A39"/>
<path fill-rule="evenodd" clip-rule="evenodd" d="M0 33.6031H31.967V54.8321L0 33.6031Z" fill="#1A1A18"/>
<path fill-rule="evenodd" clip-rule="evenodd" d="M36.0366 26.4659H52.3993V53.5665H34.6631L36.0366 26.4659Z" fill="#FFEC00"/>
<path fill-rule="evenodd" clip-rule="evenodd" d="M33.6035 55.9995L54.8325 24.033H33.6035V55.9995Z" fill="#FFCB00"/>
<path fill-rule="evenodd" clip-rule="evenodd" d="M26.4663 19.9635L53.567 21.122V3.60028H26.4663V19.9635Z" fill="#E4007D"/>
<path fill-rule="evenodd" clip-rule="evenodd" d="M24.0332 22.3964V1.16742L56.0002 22.3964H24.0332Z" fill="#CC006F"/>
<path d="M303.997 46.9389V42.3138H300.048C299.685 42.3138 299.415 42.3839 299.24 42.5214C299.08 42.6636 299 42.8934 299 43.2113V44.295C299 44.6059 299.08 44.8326 299.24 44.9758C299.41 45.1197 299.679 45.1913 300.048 45.1913H300.646L298.514 46.9384H300.056L301.92 45.1897H302.942V46.9384H303.997V46.9389ZM300.522 43.1126H302.942V44.4032H300.522C300.337 44.4032 300.209 44.3762 300.137 44.3225C300.071 44.2663 300.038 44.1702 300.038 44.036V43.4803C300.038 43.3429 300.071 43.2473 300.137 43.1937C300.209 43.1396 300.337 43.1126 300.522 43.1126ZM297.287 46.9389V42.3149H296.553L293.299 45.0406C293.165 45.1451 293.067 45.229 293.005 45.29C292.945 45.35 292.866 45.4333 292.771 45.541C292.78 45.4307 292.787 45.3309 292.792 45.2438C292.796 45.1557 292.803 45.074 292.808 44.9944C292.814 44.9228 292.818 44.8389 292.818 44.7434V42.3149H291.848V46.9389H292.583L295.979 44.079C296.065 44.0057 296.138 43.9399 296.194 43.8831C296.258 43.8221 296.315 43.7621 296.364 43.7038C296.361 43.7563 296.355 43.8263 296.346 43.9128C296.337 44.0015 296.331 44.0652 296.327 44.1087C296.321 44.1968 296.318 44.3077 296.318 44.4388V46.9389H297.287ZM284.886 46.9389V42.3149H285.961V44.1071H289.321V42.3149H290.406V46.9389H289.321V44.9493H285.961V46.9389H284.886ZM277.637 46.9389L280.244 42.3149H281.282L283.936 46.9389H282.726L282.171 45.9263H279.241L278.701 46.9389H277.637ZM279.707 45.0931H281.731L280.726 43.2118L279.707 45.0931ZM272.493 46.9389V43.1842H275.555V46.9389H276.632V42.3149H275.485H271.417V43.4081V46.9389H272.493ZM263.809 46.9389V42.3149H264.678L266.854 45.1096L268.988 42.3149H269.848V46.9389H268.854V44.079C268.854 43.9967 268.856 43.9282 268.863 43.8746C268.871 43.803 268.879 43.7075 268.888 43.5875C268.858 43.6443 268.83 43.6995 268.805 43.752C268.779 43.8056 268.757 43.8492 268.736 43.8837C268.688 43.9718 268.649 44.0344 268.619 44.0715L266.881 46.3833H266.666L264.93 44.0625C264.875 43.9909 264.82 43.907 264.768 43.8099C264.712 43.7229 264.672 43.6486 264.652 43.5875C264.661 43.6846 264.67 43.7743 264.679 43.8561V44.0784V46.9384H263.809V46.9389ZM257.733 46.0696H261.282V43.1396H257.733V46.0696ZM256.658 43.4081C256.658 42.99 256.736 42.7034 256.89 42.5495C257.056 42.3924 257.361 42.3149 257.806 42.3149H261.21C261.657 42.3149 261.959 42.3924 262.114 42.5495C262.277 42.7018 262.358 42.9884 262.358 43.4081V45.8457C262.358 46.2665 262.277 46.5536 262.114 46.7075C261.958 46.8614 261.656 46.9394 261.21 46.9394H257.806C257.362 46.9394 257.058 46.8619 256.89 46.7075C256.736 46.5525 256.658 46.2654 256.658 45.8457V43.4081ZM249.92 46.9389V42.3149H251.004V44.2414L253.565 42.3149H255.126L252.061 44.494L255.502 46.9384H253.771L251.004 44.9042V46.9384H249.92V46.9389ZM241.156 46.9389V42.3138H237.206C236.843 42.3138 236.573 42.3839 236.399 42.5214C236.239 42.6636 236.158 42.8934 236.158 43.2113V44.295C236.158 44.6059 236.239 44.8326 236.399 44.9758C236.569 45.1197 236.838 45.1913 237.206 45.1913H237.806L235.673 46.9384H237.215L239.079 45.1897H240.101V46.9384H241.156V46.9389ZM237.681 43.1126H240.101V44.4032H237.681C237.496 44.4032 237.367 44.3762 237.296 44.3225C237.23 44.2663 237.197 44.1702 237.197 44.036V43.4803C237.197 43.3429 237.23 43.2473 237.296 43.1937C237.367 43.1396 237.496 43.1126 237.681 43.1126ZM228.549 46.9389L231.156 42.3149H232.194L234.848 46.9389H233.639L233.083 45.9263H230.153L229.614 46.9389H228.549ZM230.618 45.0931H232.643L231.638 43.2118L230.618 45.0931ZM222.088 46.9389V42.3149H223.163V44.1071H226.523V42.3149H227.608V46.9389H226.523V44.9493H223.163V46.9389H222.088ZM215.287 46.9389V42.3149H216.362V44.1071H219.722V42.3149H220.807V46.9389H219.722V44.9493H216.362V46.9389H215.287ZM209.355 46.9389V42.3149H214.086V43.1035H210.43V44.1336H212.564V44.9222H210.43V46.0691H214.133V46.9384H209.355V46.9389ZM203.199 46.9389V42.3149H207.159C207.521 42.3149 207.789 42.3866 207.958 42.5314C208.119 42.6753 208.199 42.9019 208.199 43.2123V43.7754C208.199 43.9919 208.13 44.1681 207.992 44.3056C207.851 44.4473 207.653 44.5295 207.401 44.555C207.669 44.5906 207.875 44.6877 208.019 44.8432C208.164 44.9939 208.236 45.1924 208.236 45.4418V46.033C208.236 46.3318 208.122 46.5589 207.894 46.7155C207.674 46.8635 207.334 46.9379 206.872 46.9379H203.199V46.9389ZM206.71 44.9318H204.256V46.1057H206.71C206.918 46.1057 207.055 46.076 207.123 46.016C207.195 45.9534 207.231 45.8457 207.231 45.6949V45.3452C207.231 45.1913 207.195 45.0841 207.123 45.0215C207.054 44.9615 206.916 44.9318 206.71 44.9318ZM206.71 43.068H204.256V44.1702H206.71C206.892 44.1702 207.02 44.1469 207.095 44.1002C207.169 44.045 207.204 43.958 207.204 43.8385V43.3997C207.204 43.2803 207.169 43.1938 207.095 43.138C207.02 43.0919 206.892 43.068 206.71 43.068ZM200.376 43.1396V46.9389H199.301V43.1396H197.178V42.3149H202.509V43.1396H200.376ZM195.286 43.1396H192.383V46.0696H195.286V45.0751L196.362 45.2975V45.8441C196.362 46.2639 196.284 46.5504 196.127 46.707C195.961 46.8609 195.657 46.9389 195.213 46.9389H192.457C192.013 46.9389 191.708 46.8614 191.542 46.707C191.386 46.5504 191.308 46.2638 191.308 45.8451V43.4076C191.308 42.991 191.386 42.7044 191.542 42.5489C191.707 42.3919 192.011 42.3144 192.457 42.3144H195.213C195.658 42.3144 195.963 42.3919 196.127 42.5489C196.284 42.7039 196.362 42.991 196.362 43.4076V43.847L195.286 44.019V43.1396ZM184.706 46.0696H188.255V43.1396H184.706V46.0696ZM183.632 43.4081C183.632 42.99 183.708 42.7034 183.864 42.5495C184.028 42.3924 184.332 42.3149 184.777 42.3149H188.181H189.33V46.0696H190.262V47.6734H189.33V46.9389H183.632V47.6734H182.645V46.0696H183.632V43.4081H183.632ZM176.713 46.0696H180.261V43.1396H176.713V46.0696ZM175.638 43.4081C175.638 42.99 175.715 42.7034 175.869 42.5495C176.035 42.3924 176.34 42.3149 176.785 42.3149H180.188C180.636 42.3149 180.938 42.3924 181.093 42.5495C181.256 42.7018 181.336 42.9884 181.336 43.4081V45.8457C181.336 46.2665 181.256 46.5536 181.093 46.7075C180.937 46.8614 180.635 46.9394 180.188 46.9394H176.785C176.341 46.9394 176.036 46.8619 175.869 46.7075C175.715 46.5525 175.638 46.2654 175.638 45.8457V43.4081ZM169.365 46.9389V42.3149H173.325C173.687 42.3149 173.954 42.3866 174.125 42.5314C174.284 42.6753 174.365 42.9019 174.365 43.2123V43.7754C174.365 43.9919 174.297 44.1681 174.159 44.3056C174.017 44.4473 173.819 44.5295 173.567 44.555C173.835 44.5906 174.041 44.6877 174.186 44.8432C174.331 44.9939 174.402 45.1924 174.402 45.4418V46.033C174.402 46.3318 174.289 46.5589 174.06 46.7155C173.84 46.8635 173.5 46.9379 173.038 46.9379H169.365V46.9389ZM172.876 44.9318H170.422V46.1057H172.876C173.084 46.1057 173.221 46.076 173.29 46.016C173.361 45.9534 173.398 45.8457 173.398 45.6949V45.3452C173.398 45.1913 173.362 45.0841 173.29 45.0215C173.22 44.9615 173.082 44.9318 172.876 44.9318ZM172.876 43.068H170.422V44.1702H172.876C173.058 44.1702 173.187 44.1469 173.262 44.1002C173.335 44.045 173.37 43.958 173.37 43.8385V43.3997C173.37 43.2803 173.335 43.1938 173.262 43.138C173.187 43.0919 173.058 43.068 172.876 43.068ZM164.283 43.1396H167.186V44.1251H165.6V45.03H167.186V46.0691H164.283V45.0735L163.208 45.2975V45.8441C163.208 46.2639 163.285 46.5504 163.442 46.707C163.608 46.8609 163.912 46.9389 164.355 46.9389H167.3C167.423 46.9389 167.559 46.9134 167.708 46.8625C167.858 46.81 167.988 46.7203 168.096 46.5892C168.206 46.4592 168.261 46.2861 168.261 46.0696V45.2184C168.261 45.021 168.217 44.8824 168.131 44.8002C168.044 44.7163 167.914 44.6298 167.741 44.5359C167.885 44.4759 168.007 44.3937 168.109 44.2912C168.21 44.1883 168.261 44.0673 168.261 43.9282V43.4087C168.261 42.9921 168.183 42.7055 168.027 42.5484C167.862 42.3929 167.558 42.3154 167.112 42.3154H164.355C163.911 42.3154 163.606 42.3929 163.442 42.5484C163.285 42.705 163.208 42.9921 163.208 43.4087V43.8481L164.283 44.0185V43.1396ZM161.793 46.9389V42.3149H161.058L157.806 45.0406C157.671 45.1451 157.573 45.229 157.512 45.29C157.452 45.35 157.372 45.4333 157.277 45.541C157.286 45.4307 157.293 45.3309 157.298 45.2438C157.302 45.1557 157.309 45.074 157.315 44.9944C157.32 44.9228 157.324 44.8389 157.324 44.7434V42.3149H156.355V46.9389H157.089L160.485 44.079C160.572 44.0057 160.643 43.9399 160.7 43.8831C160.764 43.8221 160.821 43.7621 160.87 43.7038C160.867 43.7563 160.861 43.8263 160.852 43.9128C160.843 44.0015 160.837 44.0652 160.832 44.1087C160.826 44.1968 160.823 44.3077 160.823 44.4388V46.9389H161.793ZM150.1 46.0696H153.649V43.1396H150.1V46.0696ZM149.025 43.4081C149.025 42.99 149.102 42.7034 149.256 42.5495C149.422 42.3924 149.726 42.3149 150.171 42.3149H153.575C154.023 42.3149 154.325 42.3924 154.48 42.5495C154.643 42.7018 154.723 42.9884 154.723 43.4081V45.8457C154.723 46.2665 154.643 46.5536 154.48 46.7075C154.324 46.8614 154.022 46.9394 153.575 46.9394H150.171C149.728 46.9394 149.423 46.8619 149.256 46.7075C149.102 46.5525 149.025 46.2654 149.025 45.8457V43.4081ZM142.824 46.9389V42.3149H146.774C147.137 42.3149 147.407 42.3839 147.582 42.5229C147.743 42.6646 147.824 42.8934 147.824 43.2113V44.2414C147.824 44.5518 147.743 44.7774 147.58 44.9212C147.41 45.0661 147.141 45.1377 146.773 45.1377H143.88V46.9389H142.824ZM146.3 43.1126H143.88V44.3401H146.3C146.488 44.3401 146.617 44.313 146.685 44.2594C146.751 44.2058 146.784 44.1103 146.784 43.9728V43.4798C146.784 43.3423 146.751 43.2468 146.685 43.1932C146.617 43.1396 146.488 43.1126 146.3 43.1126ZM137.402 46.9389V43.1842H140.464V46.9389H141.541V42.3149H140.394H136.325V43.4081V46.9389H137.402ZM132.963 45.0125V44.0896H135.052V45.0125H132.963ZM127.15 46.0696H130.698V43.1396H127.15V46.0696ZM126.075 43.4081C126.075 42.99 126.152 42.7034 126.306 42.5495C126.472 42.3924 126.777 42.3149 127.222 42.3149H130.626C131.074 42.3149 131.376 42.3924 131.531 42.5495C131.693 42.7018 131.774 42.9884 131.774 43.4081V45.8457C131.774 46.2665 131.693 46.5536 131.531 46.7075C131.374 46.8614 131.072 46.9394 130.626 46.9394H127.222C126.779 46.9394 126.473 46.8619 126.306 46.7075C126.152 46.5525 126.075 46.2654 126.075 45.8457V43.4081ZM119.282 46.9389V42.3149H120.358V44.1071H123.718V42.3149H124.802V46.9389H123.718V44.9493H120.358V46.9389H119.282ZM111.8 46.9389V42.3149H112.669L114.846 45.1096L116.98 42.3149H117.84V46.9389H116.845V44.079C116.845 43.9967 116.848 43.9282 116.855 43.8746C116.862 43.803 116.871 43.7075 116.88 43.5875C116.85 43.6443 116.822 43.6995 116.797 43.752C116.771 43.8056 116.749 43.8492 116.728 43.8837C116.68 43.9718 116.641 44.0344 116.611 44.0715L114.873 46.3833H114.658L112.921 44.0625C112.866 43.9909 112.812 43.907 112.76 43.8099C112.703 43.7229 112.664 43.6486 112.643 43.5875C112.652 43.6846 112.661 43.7743 112.669 43.8561V44.0784V46.9384H111.8V46.9389ZM104.569 46.9389L107.177 42.3149H108.215L110.868 46.9389H109.659L109.103 45.9263H106.173L105.634 46.9389H104.569ZM106.639 45.0931H108.664L107.659 43.2118L106.639 45.0931ZM101.606 42.3149L104.275 46.9389H103.047L101.174 43.5966L99.3928 46.9389H98.3161L100.862 42.3149H101.606ZM92.0612 46.9389V42.3149H93.1454V44.2414L95.7066 42.3149H97.2674L94.2026 44.494L97.6437 46.9384H95.9125L93.1454 44.9042V46.9384H92.0612V46.9389ZM86.085 46.9389V42.3149H90.8162V43.1035H87.1602V44.1336H89.2941V44.9222H87.1602V46.0691H90.8624V46.9384H86.085V46.9389ZM80.0005 46.9389V42.3149H83.9505C84.3135 42.3149 84.5836 42.3839 84.7582 42.5229C84.9196 42.6646 85.0002 42.8934 85.0002 43.2113V44.2414C85.0002 44.5518 84.9196 44.7774 84.7572 44.9212C84.5868 45.0661 84.3183 45.1377 83.9505 45.1377H81.0576V46.9389H80.0005ZM83.4771 43.1126H81.0576V44.3401H83.4771C83.665 44.3401 83.7934 44.313 83.8624 44.2594C83.9282 44.2058 83.9611 44.1103 83.9611 43.9728V43.4798C83.9611 43.3423 83.9282 43.2468 83.8624 43.1932C83.7934 43.1396 83.665 43.1126 83.4771 43.1126Z" fill="#121D36"/>
<path d="M289.129 25.8027L293.214 16.2352L297.227 25.8027H289.129ZM301.062 35.048H304L293.286 10L282.285 35.048H285.223L288.09 28.3113H298.266L301.062 35.048ZM273.469 35.048H276.121V13.6549H284.362V11.1463H273.469V35.048ZM256.376 13.2606C261.644 13.2606 265.872 17.4893 265.872 23.1152C265.872 28.7412 261.644 32.9693 256.376 32.9693C251.108 32.9693 246.916 28.7412 246.916 23.1152C246.916 17.4893 251.109 13.2606 256.376 13.2606ZM240.645 21.1086V11.1463H237.993V35.048H240.645V23.6167H244.193C244.444 29.9591 249.246 35.4779 256.376 35.4779C263.4 35.4779 268.596 30.2102 268.596 23.1152C268.596 15.8765 263.4 10.7525 256.376 10.7525C249.962 10.7525 245.16 15.2316 244.3 21.1086H240.645ZM220.829 35.048H223.48V10.1433L206.854 29.4582V11.1463H204.202V36.1227L220.829 16.8078V35.048ZM186.5 11.1463H183.848V35.048H186.5V24.7636L187.18 24.0827L196.963 35.048H200.619L189.08 22.291L200.26 11.1463H196.677L186.5 21.3952L186.5 11.1463ZM178.974 13.1173C176.107 10.9314 173.348 10.752 171.915 10.752C164.748 10.752 159.409 16.0553 159.409 23.1863C159.409 30.1024 164.677 35.4774 171.772 35.4774C173.563 35.4774 176.322 35.0475 178.974 33.1481V29.8514C178.544 30.2818 177.577 31.1776 176.215 31.858C174.961 32.5033 173.384 32.9688 171.772 32.9688C167.4 32.9688 162.132 29.7076 162.132 23.2219C162.132 17.7031 166.217 13.2601 171.735 13.2601C173.133 13.2601 174.602 13.6183 175.856 14.192C177.075 14.7652 178.221 15.6615 178.974 16.4135V13.1173ZM155.826 11.1463H143.427V35.048H155.826V32.5394H146.079V23.2585H155.539V20.7499H146.079V13.6544H155.826V11.1463ZM127.086 24.011H129.81C131.709 24.011 132.963 24.226 133.859 24.7275C134.79 25.2295 135.901 26.3403 135.901 28.2391C135.901 29.6726 135.257 30.855 134.325 31.5359C133.178 32.4317 131.673 32.5394 130.132 32.5394H127.086V24.011ZM127.086 13.6549H129.165C129.917 13.6549 133.787 13.7266 133.787 17.6686C133.787 21.3597 130.49 21.6462 129.093 21.6462H127.086V13.6549ZM124.435 11.1463V35.048H130.383C132.031 35.048 134.217 34.9764 136.116 33.4713C137.406 32.4678 138.553 30.605 138.553 28.3113C138.553 26.0182 137.335 23.1152 134.002 22.291C136.116 20.8576 136.367 18.7794 136.367 17.597C136.367 14.6941 134.97 13.2251 134.218 12.6519C132.461 11.254 130.061 11.1468 128.735 11.1468H124.435V11.1463ZM115.619 11.1463V35.048H118.271V11.1463H115.619ZM101.644 23.5812H104.439C105.909 23.5812 107.342 23.5812 108.453 24.1899C110.101 25.0857 110.388 26.6624 110.388 27.8093C110.388 29.5293 109.779 30.6045 109.134 31.2137C107.773 32.5399 105.802 32.5399 104.726 32.5399H101.645L101.644 23.5812ZM98.9922 35.048H105.371C110.065 35.048 113.11 32.3606 113.11 27.8093C113.11 21.6818 107.807 21.0726 104.869 21.0726H101.644V11.1463H98.9917L98.9922 35.048ZM82.6519 24.011H85.3749C87.2743 24.011 88.5284 24.226 89.4242 24.7275C90.3556 25.2295 91.4669 26.3403 91.4669 28.2391C91.4669 29.6726 90.8215 30.855 89.8902 31.5359C88.7433 32.4317 87.2382 32.5394 85.6976 32.5394H82.6519V24.011ZM82.6519 13.6549H84.7301C85.4827 13.6549 89.3526 13.7266 89.3526 17.6686C89.3526 21.3597 86.0558 21.6462 84.658 21.6462H82.6514L82.6519 13.6549ZM80 11.1463V35.048H85.9481C87.5965 35.048 89.7824 34.9764 91.6818 33.4713C92.9719 32.4678 94.1188 30.605 94.1188 28.3113C94.1188 26.0182 92.9003 23.1152 89.568 22.291C91.6818 20.8576 91.9328 18.7794 91.9328 17.597C91.9328 14.6941 90.5355 13.2251 89.7829 12.6519C88.0269 11.254 85.626 11.1468 84.3003 11.1468H80V11.1463Z" fill="#121D36"/>
</svg>
